# xmcd
#
# Track frame offsets: 
#        150
#        12191
#        23384
#        35381
#        52030
#        67562
#        79596
#        91071
#        109765
#        122651
#        140196
#        154380
#        168865
#        182243
#        198790
#        213789
#        231676
#        243679
#        257279
#        280341
#
# Disc length: 3922 seconds
#
# Revision: 0
# Processed by: cddbd v1.5.2PL0 Copyright (c) Steve Scherf et al.
# Submitted via: ExactAudioCopy v1.2
#
DISCID=070f5014
DTITLE=The Washboard Resonators - Live from Leeds
DYEAR=2019
DGENRE=Blues
TTITLE0=The Sweetest Rose
TTITLE1=Jivin' Woman Blues
TTITLE2=Cannonball Rag
TTITLE3=My Car Has Shrunk in the Rain
TTITLE4=The Dummy Song
TTITLE5=Holding on to Two Hearts
TTITLE6=Dueling Banjos
TTITLE7=I'll Make it Mine
TTITLE8=When You're Smiling
TTITLE9=Much Too Tight
TTITLE10=Blue Waltz Yodel
TTITLE11=Beep Beep
TTITLE12=Scrub That Thing
TTITLE13=The Deedlehum Sweetie
TTITLE14=The Floor Will Be Thumping
TTITLE15=The Sun Always Shines...
TTITLE16=Go on Home Mister
TTITLE17=Walk Right In
TTITLE18=Last Song Rag
TTITLE19=Tie a Ribbon
EXTD=
EXTT0=
EXTT1=
EXTT2=
EXTT3=
EXTT4=
EXTT5=
EXTT6=
EXTT7=
EXTT8=
EXTT9=
EXTT10=
EXTT11=
EXTT12=
EXTT13=
EXTT14=
EXTT15=
EXTT16=
EXTT17=
EXTT18=
EXTT19=
PLAYORDER=
